<mxfile host="Electron" agent="Mozilla/5.0 (Windows NT 10.0; Win64; x64) AppleWebKit/537.36 (KHTML, like Gecko) draw.io/28.0.6 Chrome/138.0.7204.100 Electron/37.2.3 Safari/537.36" version="28.0.6">
  <diagram name="Page-1" id="8ojKaS52EnfpSGypUQR2">
    <mxGraphModel dx="464" dy="1925" grid="1" gridSize="11" guides="1" tooltips="1" connect="1" arrows="1" fold="1" page="1" pageScale="1" pageWidth="850" pageHeight="1100" math="0" shadow="0">
      <root>
        <mxCell id="0" />
        <mxCell id="1" parent="0" />
        <mxCell id="Jva-s782ccOHxOLfVtiO-1" value="gold.dim_customers" style="shape=table;startSize=30;container=1;collapsible=1;childLayout=tableLayout;fixedRows=1;rowLines=0;fontStyle=1;align=center;resizeLast=1;html=1;fillColor=#dae8fc;strokeColor=#6c8ebf;fontSize=16;spacingTop=2;" parent="1" vertex="1">
          <mxGeometry x="1155" y="231" width="180" height="330" as="geometry" />
        </mxCell>
        <mxCell id="Jva-s782ccOHxOLfVtiO-2" value="" style="shape=tableRow;horizontal=0;startSize=0;swimlaneHead=0;swimlaneBody=0;fillColor=none;collapsible=0;dropTarget=0;points=[[0,0.5],[1,0.5]];portConstraint=eastwest;top=0;left=0;right=0;bottom=1;fontSize=16;spacingTop=2;" parent="Jva-s782ccOHxOLfVtiO-1" vertex="1">
          <mxGeometry y="30" width="180" height="30" as="geometry" />
        </mxCell>
        <mxCell id="Jva-s782ccOHxOLfVtiO-3" value="PK" style="shape=partialRectangle;connectable=0;fillColor=none;top=0;left=0;bottom=0;right=0;fontStyle=1;overflow=hidden;whiteSpace=wrap;html=1;fontSize=16;spacingTop=2;" parent="Jva-s782ccOHxOLfVtiO-2" vertex="1">
          <mxGeometry width="30" height="30" as="geometry">
            <mxRectangle width="30" height="30" as="alternateBounds" />
          </mxGeometry>
        </mxCell>
        <mxCell id="Jva-s782ccOHxOLfVtiO-4" value="customer_key" style="shape=partialRectangle;connectable=0;fillColor=none;top=0;left=0;bottom=0;right=0;align=left;spacingLeft=6;fontStyle=5;overflow=hidden;whiteSpace=wrap;html=1;fontSize=16;spacingTop=2;" parent="Jva-s782ccOHxOLfVtiO-2" vertex="1">
          <mxGeometry x="30" width="150" height="30" as="geometry">
            <mxRectangle width="150" height="30" as="alternateBounds" />
          </mxGeometry>
        </mxCell>
        <mxCell id="Jva-s782ccOHxOLfVtiO-5" value="" style="shape=tableRow;horizontal=0;startSize=0;swimlaneHead=0;swimlaneBody=0;fillColor=none;collapsible=0;dropTarget=0;points=[[0,0.5],[1,0.5]];portConstraint=eastwest;top=0;left=0;right=0;bottom=0;fontSize=16;spacingTop=2;" parent="Jva-s782ccOHxOLfVtiO-1" vertex="1">
          <mxGeometry y="60" width="180" height="30" as="geometry" />
        </mxCell>
        <mxCell id="Jva-s782ccOHxOLfVtiO-6" value="" style="shape=partialRectangle;connectable=0;fillColor=none;top=0;left=0;bottom=0;right=0;editable=1;overflow=hidden;whiteSpace=wrap;html=1;fontSize=16;spacingTop=2;" parent="Jva-s782ccOHxOLfVtiO-5" vertex="1">
          <mxGeometry width="30" height="30" as="geometry">
            <mxRectangle width="30" height="30" as="alternateBounds" />
          </mxGeometry>
        </mxCell>
        <mxCell id="Jva-s782ccOHxOLfVtiO-7" value="customer_id" style="shape=partialRectangle;connectable=0;fillColor=none;top=0;left=0;bottom=0;right=0;align=left;spacingLeft=6;overflow=hidden;whiteSpace=wrap;html=1;fontSize=16;spacingTop=2;" parent="Jva-s782ccOHxOLfVtiO-5" vertex="1">
          <mxGeometry x="30" width="150" height="30" as="geometry">
            <mxRectangle width="150" height="30" as="alternateBounds" />
          </mxGeometry>
        </mxCell>
        <mxCell id="Jva-s782ccOHxOLfVtiO-8" value="" style="shape=tableRow;horizontal=0;startSize=0;swimlaneHead=0;swimlaneBody=0;fillColor=none;collapsible=0;dropTarget=0;points=[[0,0.5],[1,0.5]];portConstraint=eastwest;top=0;left=0;right=0;bottom=0;fontSize=16;spacingTop=2;" parent="Jva-s782ccOHxOLfVtiO-1" vertex="1">
          <mxGeometry y="90" width="180" height="30" as="geometry" />
        </mxCell>
        <mxCell id="Jva-s782ccOHxOLfVtiO-9" value="" style="shape=partialRectangle;connectable=0;fillColor=none;top=0;left=0;bottom=0;right=0;editable=1;overflow=hidden;whiteSpace=wrap;html=1;fontSize=16;spacingTop=2;" parent="Jva-s782ccOHxOLfVtiO-8" vertex="1">
          <mxGeometry width="30" height="30" as="geometry">
            <mxRectangle width="30" height="30" as="alternateBounds" />
          </mxGeometry>
        </mxCell>
        <mxCell id="Jva-s782ccOHxOLfVtiO-10" value="customer_number" style="shape=partialRectangle;connectable=0;fillColor=none;top=0;left=0;bottom=0;right=0;align=left;spacingLeft=6;overflow=hidden;whiteSpace=wrap;html=1;fontSize=16;spacingTop=2;" parent="Jva-s782ccOHxOLfVtiO-8" vertex="1">
          <mxGeometry x="30" width="150" height="30" as="geometry">
            <mxRectangle width="150" height="30" as="alternateBounds" />
          </mxGeometry>
        </mxCell>
        <mxCell id="Jva-s782ccOHxOLfVtiO-11" value="" style="shape=tableRow;horizontal=0;startSize=0;swimlaneHead=0;swimlaneBody=0;fillColor=none;collapsible=0;dropTarget=0;points=[[0,0.5],[1,0.5]];portConstraint=eastwest;top=0;left=0;right=0;bottom=0;fontSize=16;spacingTop=2;" parent="Jva-s782ccOHxOLfVtiO-1" vertex="1">
          <mxGeometry y="120" width="180" height="30" as="geometry" />
        </mxCell>
        <mxCell id="Jva-s782ccOHxOLfVtiO-12" value="" style="shape=partialRectangle;connectable=0;fillColor=none;top=0;left=0;bottom=0;right=0;editable=1;overflow=hidden;whiteSpace=wrap;html=1;fontSize=16;spacingTop=2;" parent="Jva-s782ccOHxOLfVtiO-11" vertex="1">
          <mxGeometry width="30" height="30" as="geometry">
            <mxRectangle width="30" height="30" as="alternateBounds" />
          </mxGeometry>
        </mxCell>
        <mxCell id="Jva-s782ccOHxOLfVtiO-13" value="first_name" style="shape=partialRectangle;connectable=0;fillColor=none;top=0;left=0;bottom=0;right=0;align=left;spacingLeft=6;overflow=hidden;whiteSpace=wrap;html=1;fontSize=16;spacingTop=2;" parent="Jva-s782ccOHxOLfVtiO-11" vertex="1">
          <mxGeometry x="30" width="150" height="30" as="geometry">
            <mxRectangle width="150" height="30" as="alternateBounds" />
          </mxGeometry>
        </mxCell>
        <mxCell id="Jva-s782ccOHxOLfVtiO-43" value="" style="shape=tableRow;horizontal=0;startSize=0;swimlaneHead=0;swimlaneBody=0;fillColor=none;collapsible=0;dropTarget=0;points=[[0,0.5],[1,0.5]];portConstraint=eastwest;top=0;left=0;right=0;bottom=0;fontSize=16;spacingTop=2;" parent="Jva-s782ccOHxOLfVtiO-1" vertex="1">
          <mxGeometry y="150" width="180" height="30" as="geometry" />
        </mxCell>
        <mxCell id="Jva-s782ccOHxOLfVtiO-44" value="" style="shape=partialRectangle;connectable=0;fillColor=none;top=0;left=0;bottom=0;right=0;editable=1;overflow=hidden;whiteSpace=wrap;html=1;fontSize=16;spacingTop=2;" parent="Jva-s782ccOHxOLfVtiO-43" vertex="1">
          <mxGeometry width="30" height="30" as="geometry">
            <mxRectangle width="30" height="30" as="alternateBounds" />
          </mxGeometry>
        </mxCell>
        <mxCell id="Jva-s782ccOHxOLfVtiO-45" value="last_name" style="shape=partialRectangle;connectable=0;fillColor=none;top=0;left=0;bottom=0;right=0;align=left;spacingLeft=6;overflow=hidden;whiteSpace=wrap;html=1;fontSize=16;spacingTop=2;" parent="Jva-s782ccOHxOLfVtiO-43" vertex="1">
          <mxGeometry x="30" width="150" height="30" as="geometry">
            <mxRectangle width="150" height="30" as="alternateBounds" />
          </mxGeometry>
        </mxCell>
        <mxCell id="Jva-s782ccOHxOLfVtiO-46" value="" style="shape=tableRow;horizontal=0;startSize=0;swimlaneHead=0;swimlaneBody=0;fillColor=none;collapsible=0;dropTarget=0;points=[[0,0.5],[1,0.5]];portConstraint=eastwest;top=0;left=0;right=0;bottom=0;fontSize=16;spacingTop=2;" parent="Jva-s782ccOHxOLfVtiO-1" vertex="1">
          <mxGeometry y="180" width="180" height="30" as="geometry" />
        </mxCell>
        <mxCell id="Jva-s782ccOHxOLfVtiO-47" value="" style="shape=partialRectangle;connectable=0;fillColor=none;top=0;left=0;bottom=0;right=0;editable=1;overflow=hidden;whiteSpace=wrap;html=1;fontSize=16;spacingTop=2;" parent="Jva-s782ccOHxOLfVtiO-46" vertex="1">
          <mxGeometry width="30" height="30" as="geometry">
            <mxRectangle width="30" height="30" as="alternateBounds" />
          </mxGeometry>
        </mxCell>
        <mxCell id="Jva-s782ccOHxOLfVtiO-48" value="country" style="shape=partialRectangle;connectable=0;fillColor=none;top=0;left=0;bottom=0;right=0;align=left;spacingLeft=6;overflow=hidden;whiteSpace=wrap;html=1;fontSize=16;spacingTop=2;" parent="Jva-s782ccOHxOLfVtiO-46" vertex="1">
          <mxGeometry x="30" width="150" height="30" as="geometry">
            <mxRectangle width="150" height="30" as="alternateBounds" />
          </mxGeometry>
        </mxCell>
        <mxCell id="Jva-s782ccOHxOLfVtiO-49" value="" style="shape=tableRow;horizontal=0;startSize=0;swimlaneHead=0;swimlaneBody=0;fillColor=none;collapsible=0;dropTarget=0;points=[[0,0.5],[1,0.5]];portConstraint=eastwest;top=0;left=0;right=0;bottom=0;fontSize=16;spacingTop=2;" parent="Jva-s782ccOHxOLfVtiO-1" vertex="1">
          <mxGeometry y="210" width="180" height="30" as="geometry" />
        </mxCell>
        <mxCell id="Jva-s782ccOHxOLfVtiO-50" value="" style="shape=partialRectangle;connectable=0;fillColor=none;top=0;left=0;bottom=0;right=0;editable=1;overflow=hidden;whiteSpace=wrap;html=1;fontSize=16;spacingTop=2;" parent="Jva-s782ccOHxOLfVtiO-49" vertex="1">
          <mxGeometry width="30" height="30" as="geometry">
            <mxRectangle width="30" height="30" as="alternateBounds" />
          </mxGeometry>
        </mxCell>
        <mxCell id="Jva-s782ccOHxOLfVtiO-51" value="marital_status" style="shape=partialRectangle;connectable=0;fillColor=none;top=0;left=0;bottom=0;right=0;align=left;spacingLeft=6;overflow=hidden;whiteSpace=wrap;html=1;fontSize=16;spacingTop=2;" parent="Jva-s782ccOHxOLfVtiO-49" vertex="1">
          <mxGeometry x="30" width="150" height="30" as="geometry">
            <mxRectangle width="150" height="30" as="alternateBounds" />
          </mxGeometry>
        </mxCell>
        <mxCell id="Jva-s782ccOHxOLfVtiO-52" value="" style="shape=tableRow;horizontal=0;startSize=0;swimlaneHead=0;swimlaneBody=0;fillColor=none;collapsible=0;dropTarget=0;points=[[0,0.5],[1,0.5]];portConstraint=eastwest;top=0;left=0;right=0;bottom=0;fontSize=16;spacingTop=2;" parent="Jva-s782ccOHxOLfVtiO-1" vertex="1">
          <mxGeometry y="240" width="180" height="30" as="geometry" />
        </mxCell>
        <mxCell id="Jva-s782ccOHxOLfVtiO-53" value="" style="shape=partialRectangle;connectable=0;fillColor=none;top=0;left=0;bottom=0;right=0;editable=1;overflow=hidden;whiteSpace=wrap;html=1;fontSize=16;spacingTop=2;" parent="Jva-s782ccOHxOLfVtiO-52" vertex="1">
          <mxGeometry width="30" height="30" as="geometry">
            <mxRectangle width="30" height="30" as="alternateBounds" />
          </mxGeometry>
        </mxCell>
        <mxCell id="Jva-s782ccOHxOLfVtiO-54" value="gender" style="shape=partialRectangle;connectable=0;fillColor=none;top=0;left=0;bottom=0;right=0;align=left;spacingLeft=6;overflow=hidden;whiteSpace=wrap;html=1;fontSize=16;spacingTop=2;" parent="Jva-s782ccOHxOLfVtiO-52" vertex="1">
          <mxGeometry x="30" width="150" height="30" as="geometry">
            <mxRectangle width="150" height="30" as="alternateBounds" />
          </mxGeometry>
        </mxCell>
        <mxCell id="Jva-s782ccOHxOLfVtiO-80" value="" style="shape=tableRow;horizontal=0;startSize=0;swimlaneHead=0;swimlaneBody=0;fillColor=none;collapsible=0;dropTarget=0;points=[[0,0.5],[1,0.5]];portConstraint=eastwest;top=0;left=0;right=0;bottom=0;fontSize=16;spacingTop=2;" parent="Jva-s782ccOHxOLfVtiO-1" vertex="1">
          <mxGeometry y="270" width="180" height="30" as="geometry" />
        </mxCell>
        <mxCell id="Jva-s782ccOHxOLfVtiO-81" value="" style="shape=partialRectangle;connectable=0;fillColor=none;top=0;left=0;bottom=0;right=0;editable=1;overflow=hidden;whiteSpace=wrap;html=1;fontSize=16;spacingTop=2;" parent="Jva-s782ccOHxOLfVtiO-80" vertex="1">
          <mxGeometry width="30" height="30" as="geometry">
            <mxRectangle width="30" height="30" as="alternateBounds" />
          </mxGeometry>
        </mxCell>
        <mxCell id="Jva-s782ccOHxOLfVtiO-82" value="birthdate" style="shape=partialRectangle;connectable=0;fillColor=none;top=0;left=0;bottom=0;right=0;align=left;spacingLeft=6;overflow=hidden;whiteSpace=wrap;html=1;fontSize=16;spacingTop=2;" parent="Jva-s782ccOHxOLfVtiO-80" vertex="1">
          <mxGeometry x="30" width="150" height="30" as="geometry">
            <mxRectangle width="150" height="30" as="alternateBounds" />
          </mxGeometry>
        </mxCell>
        <mxCell id="Jva-s782ccOHxOLfVtiO-83" value="" style="shape=tableRow;horizontal=0;startSize=0;swimlaneHead=0;swimlaneBody=0;fillColor=none;collapsible=0;dropTarget=0;points=[[0,0.5],[1,0.5]];portConstraint=eastwest;top=0;left=0;right=0;bottom=0;fontSize=16;spacingTop=2;" parent="Jva-s782ccOHxOLfVtiO-1" vertex="1">
          <mxGeometry y="300" width="180" height="30" as="geometry" />
        </mxCell>
        <mxCell id="Jva-s782ccOHxOLfVtiO-84" value="" style="shape=partialRectangle;connectable=0;fillColor=none;top=0;left=0;bottom=0;right=0;editable=1;overflow=hidden;whiteSpace=wrap;html=1;fontSize=16;spacingTop=2;" parent="Jva-s782ccOHxOLfVtiO-83" vertex="1">
          <mxGeometry width="30" height="30" as="geometry">
            <mxRectangle width="30" height="30" as="alternateBounds" />
          </mxGeometry>
        </mxCell>
        <mxCell id="Jva-s782ccOHxOLfVtiO-85" value="country" style="shape=partialRectangle;connectable=0;fillColor=none;top=0;left=0;bottom=0;right=0;align=left;spacingLeft=6;overflow=hidden;whiteSpace=wrap;html=1;fontSize=16;spacingTop=2;" parent="Jva-s782ccOHxOLfVtiO-83" vertex="1">
          <mxGeometry x="30" width="150" height="30" as="geometry">
            <mxRectangle width="150" height="30" as="alternateBounds" />
          </mxGeometry>
        </mxCell>
        <mxCell id="Jva-s782ccOHxOLfVtiO-16" value="&lt;b&gt;Star Schema explanatory diagram&lt;/b&gt;" style="text;strokeColor=#d6b656;align=center;fillColor=#fff2cc;html=1;verticalAlign=middle;whiteSpace=wrap;rounded=0;fontSize=16;" parent="1" vertex="1">
          <mxGeometry x="660" y="33" width="370" height="110" as="geometry" />
        </mxCell>
        <mxCell id="Jva-s782ccOHxOLfVtiO-17" value="gold.dim_products" style="shape=table;startSize=30;container=1;collapsible=1;childLayout=tableLayout;fixedRows=1;rowLines=0;fontStyle=1;align=center;resizeLast=1;html=1;fillColor=#dae8fc;strokeColor=#6c8ebf;fontSize=16;spacingTop=2;" parent="1" vertex="1">
          <mxGeometry x="425" y="231" width="180" height="360" as="geometry" />
        </mxCell>
        <mxCell id="Jva-s782ccOHxOLfVtiO-18" value="" style="shape=tableRow;horizontal=0;startSize=0;swimlaneHead=0;swimlaneBody=0;fillColor=none;collapsible=0;dropTarget=0;points=[[0,0.5],[1,0.5]];portConstraint=eastwest;top=0;left=0;right=0;bottom=1;fontSize=16;spacingTop=2;" parent="Jva-s782ccOHxOLfVtiO-17" vertex="1">
          <mxGeometry y="30" width="180" height="30" as="geometry" />
        </mxCell>
        <mxCell id="Jva-s782ccOHxOLfVtiO-19" value="PK" style="shape=partialRectangle;connectable=0;fillColor=none;top=0;left=0;bottom=0;right=0;fontStyle=1;overflow=hidden;whiteSpace=wrap;html=1;fontSize=16;spacingTop=2;" parent="Jva-s782ccOHxOLfVtiO-18" vertex="1">
          <mxGeometry width="30" height="30" as="geometry">
            <mxRectangle width="30" height="30" as="alternateBounds" />
          </mxGeometry>
        </mxCell>
        <mxCell id="Jva-s782ccOHxOLfVtiO-20" value="product_key" style="shape=partialRectangle;connectable=0;fillColor=none;top=0;left=0;bottom=0;right=0;align=left;spacingLeft=6;fontStyle=5;overflow=hidden;whiteSpace=wrap;html=1;fontSize=16;spacingTop=2;" parent="Jva-s782ccOHxOLfVtiO-18" vertex="1">
          <mxGeometry x="30" width="150" height="30" as="geometry">
            <mxRectangle width="150" height="30" as="alternateBounds" />
          </mxGeometry>
        </mxCell>
        <mxCell id="Jva-s782ccOHxOLfVtiO-21" value="" style="shape=tableRow;horizontal=0;startSize=0;swimlaneHead=0;swimlaneBody=0;fillColor=none;collapsible=0;dropTarget=0;points=[[0,0.5],[1,0.5]];portConstraint=eastwest;top=0;left=0;right=0;bottom=0;fontSize=16;spacingTop=2;" parent="Jva-s782ccOHxOLfVtiO-17" vertex="1">
          <mxGeometry y="60" width="180" height="30" as="geometry" />
        </mxCell>
        <mxCell id="Jva-s782ccOHxOLfVtiO-22" value="" style="shape=partialRectangle;connectable=0;fillColor=none;top=0;left=0;bottom=0;right=0;editable=1;overflow=hidden;whiteSpace=wrap;html=1;fontSize=16;spacingTop=2;" parent="Jva-s782ccOHxOLfVtiO-21" vertex="1">
          <mxGeometry width="30" height="30" as="geometry">
            <mxRectangle width="30" height="30" as="alternateBounds" />
          </mxGeometry>
        </mxCell>
        <mxCell id="Jva-s782ccOHxOLfVtiO-23" value="product_id" style="shape=partialRectangle;connectable=0;fillColor=none;top=0;left=0;bottom=0;right=0;align=left;spacingLeft=6;overflow=hidden;whiteSpace=wrap;html=1;fontSize=16;spacingTop=2;" parent="Jva-s782ccOHxOLfVtiO-21" vertex="1">
          <mxGeometry x="30" width="150" height="30" as="geometry">
            <mxRectangle width="150" height="30" as="alternateBounds" />
          </mxGeometry>
        </mxCell>
        <mxCell id="Jva-s782ccOHxOLfVtiO-24" value="" style="shape=tableRow;horizontal=0;startSize=0;swimlaneHead=0;swimlaneBody=0;fillColor=none;collapsible=0;dropTarget=0;points=[[0,0.5],[1,0.5]];portConstraint=eastwest;top=0;left=0;right=0;bottom=0;fontSize=16;spacingTop=2;" parent="Jva-s782ccOHxOLfVtiO-17" vertex="1">
          <mxGeometry y="90" width="180" height="30" as="geometry" />
        </mxCell>
        <mxCell id="Jva-s782ccOHxOLfVtiO-25" value="" style="shape=partialRectangle;connectable=0;fillColor=none;top=0;left=0;bottom=0;right=0;editable=1;overflow=hidden;whiteSpace=wrap;html=1;fontSize=16;spacingTop=2;" parent="Jva-s782ccOHxOLfVtiO-24" vertex="1">
          <mxGeometry width="30" height="30" as="geometry">
            <mxRectangle width="30" height="30" as="alternateBounds" />
          </mxGeometry>
        </mxCell>
        <mxCell id="Jva-s782ccOHxOLfVtiO-26" value="product_number" style="shape=partialRectangle;connectable=0;fillColor=none;top=0;left=0;bottom=0;right=0;align=left;spacingLeft=6;overflow=hidden;whiteSpace=wrap;html=1;fontSize=16;spacingTop=2;" parent="Jva-s782ccOHxOLfVtiO-24" vertex="1">
          <mxGeometry x="30" width="150" height="30" as="geometry">
            <mxRectangle width="150" height="30" as="alternateBounds" />
          </mxGeometry>
        </mxCell>
        <mxCell id="Jva-s782ccOHxOLfVtiO-27" value="" style="shape=tableRow;horizontal=0;startSize=0;swimlaneHead=0;swimlaneBody=0;fillColor=none;collapsible=0;dropTarget=0;points=[[0,0.5],[1,0.5]];portConstraint=eastwest;top=0;left=0;right=0;bottom=0;fontSize=16;spacingTop=2;" parent="Jva-s782ccOHxOLfVtiO-17" vertex="1">
          <mxGeometry y="120" width="180" height="30" as="geometry" />
        </mxCell>
        <mxCell id="Jva-s782ccOHxOLfVtiO-28" value="" style="shape=partialRectangle;connectable=0;fillColor=none;top=0;left=0;bottom=0;right=0;editable=1;overflow=hidden;whiteSpace=wrap;html=1;fontSize=16;spacingTop=2;" parent="Jva-s782ccOHxOLfVtiO-27" vertex="1">
          <mxGeometry width="30" height="30" as="geometry">
            <mxRectangle width="30" height="30" as="alternateBounds" />
          </mxGeometry>
        </mxCell>
        <mxCell id="Jva-s782ccOHxOLfVtiO-29" value="product_name" style="shape=partialRectangle;connectable=0;fillColor=none;top=0;left=0;bottom=0;right=0;align=left;spacingLeft=6;overflow=hidden;whiteSpace=wrap;html=1;fontSize=16;spacingTop=2;" parent="Jva-s782ccOHxOLfVtiO-27" vertex="1">
          <mxGeometry x="30" width="150" height="30" as="geometry">
            <mxRectangle width="150" height="30" as="alternateBounds" />
          </mxGeometry>
        </mxCell>
        <mxCell id="Jva-s782ccOHxOLfVtiO-86" value="" style="shape=tableRow;horizontal=0;startSize=0;swimlaneHead=0;swimlaneBody=0;fillColor=none;collapsible=0;dropTarget=0;points=[[0,0.5],[1,0.5]];portConstraint=eastwest;top=0;left=0;right=0;bottom=0;fontSize=16;spacingTop=2;" parent="Jva-s782ccOHxOLfVtiO-17" vertex="1">
          <mxGeometry y="150" width="180" height="30" as="geometry" />
        </mxCell>
        <mxCell id="Jva-s782ccOHxOLfVtiO-87" value="" style="shape=partialRectangle;connectable=0;fillColor=none;top=0;left=0;bottom=0;right=0;editable=1;overflow=hidden;whiteSpace=wrap;html=1;fontSize=16;spacingTop=2;" parent="Jva-s782ccOHxOLfVtiO-86" vertex="1">
          <mxGeometry width="30" height="30" as="geometry">
            <mxRectangle width="30" height="30" as="alternateBounds" />
          </mxGeometry>
        </mxCell>
        <mxCell id="Jva-s782ccOHxOLfVtiO-88" value="category_id" style="shape=partialRectangle;connectable=0;fillColor=none;top=0;left=0;bottom=0;right=0;align=left;spacingLeft=6;overflow=hidden;whiteSpace=wrap;html=1;fontSize=16;spacingTop=2;" parent="Jva-s782ccOHxOLfVtiO-86" vertex="1">
          <mxGeometry x="30" width="150" height="30" as="geometry">
            <mxRectangle width="150" height="30" as="alternateBounds" />
          </mxGeometry>
        </mxCell>
        <mxCell id="Jva-s782ccOHxOLfVtiO-89" value="" style="shape=tableRow;horizontal=0;startSize=0;swimlaneHead=0;swimlaneBody=0;fillColor=none;collapsible=0;dropTarget=0;points=[[0,0.5],[1,0.5]];portConstraint=eastwest;top=0;left=0;right=0;bottom=0;fontSize=16;spacingTop=2;" parent="Jva-s782ccOHxOLfVtiO-17" vertex="1">
          <mxGeometry y="180" width="180" height="30" as="geometry" />
        </mxCell>
        <mxCell id="Jva-s782ccOHxOLfVtiO-90" value="" style="shape=partialRectangle;connectable=0;fillColor=none;top=0;left=0;bottom=0;right=0;editable=1;overflow=hidden;whiteSpace=wrap;html=1;fontSize=16;spacingTop=2;" parent="Jva-s782ccOHxOLfVtiO-89" vertex="1">
          <mxGeometry width="30" height="30" as="geometry">
            <mxRectangle width="30" height="30" as="alternateBounds" />
          </mxGeometry>
        </mxCell>
        <mxCell id="Jva-s782ccOHxOLfVtiO-91" value="category" style="shape=partialRectangle;connectable=0;fillColor=none;top=0;left=0;bottom=0;right=0;align=left;spacingLeft=6;overflow=hidden;whiteSpace=wrap;html=1;fontSize=16;spacingTop=2;" parent="Jva-s782ccOHxOLfVtiO-89" vertex="1">
          <mxGeometry x="30" width="150" height="30" as="geometry">
            <mxRectangle width="150" height="30" as="alternateBounds" />
          </mxGeometry>
        </mxCell>
        <mxCell id="Jva-s782ccOHxOLfVtiO-92" value="" style="shape=tableRow;horizontal=0;startSize=0;swimlaneHead=0;swimlaneBody=0;fillColor=none;collapsible=0;dropTarget=0;points=[[0,0.5],[1,0.5]];portConstraint=eastwest;top=0;left=0;right=0;bottom=0;fontSize=16;spacingTop=2;" parent="Jva-s782ccOHxOLfVtiO-17" vertex="1">
          <mxGeometry y="210" width="180" height="30" as="geometry" />
        </mxCell>
        <mxCell id="Jva-s782ccOHxOLfVtiO-93" value="" style="shape=partialRectangle;connectable=0;fillColor=none;top=0;left=0;bottom=0;right=0;editable=1;overflow=hidden;whiteSpace=wrap;html=1;fontSize=16;spacingTop=2;" parent="Jva-s782ccOHxOLfVtiO-92" vertex="1">
          <mxGeometry width="30" height="30" as="geometry">
            <mxRectangle width="30" height="30" as="alternateBounds" />
          </mxGeometry>
        </mxCell>
        <mxCell id="Jva-s782ccOHxOLfVtiO-94" value="subcategory" style="shape=partialRectangle;connectable=0;fillColor=none;top=0;left=0;bottom=0;right=0;align=left;spacingLeft=6;overflow=hidden;whiteSpace=wrap;html=1;fontSize=16;spacingTop=2;" parent="Jva-s782ccOHxOLfVtiO-92" vertex="1">
          <mxGeometry x="30" width="150" height="30" as="geometry">
            <mxRectangle width="150" height="30" as="alternateBounds" />
          </mxGeometry>
        </mxCell>
        <mxCell id="Jva-s782ccOHxOLfVtiO-95" value="" style="shape=tableRow;horizontal=0;startSize=0;swimlaneHead=0;swimlaneBody=0;fillColor=none;collapsible=0;dropTarget=0;points=[[0,0.5],[1,0.5]];portConstraint=eastwest;top=0;left=0;right=0;bottom=0;fontSize=16;spacingTop=2;" parent="Jva-s782ccOHxOLfVtiO-17" vertex="1">
          <mxGeometry y="240" width="180" height="30" as="geometry" />
        </mxCell>
        <mxCell id="Jva-s782ccOHxOLfVtiO-96" value="" style="shape=partialRectangle;connectable=0;fillColor=none;top=0;left=0;bottom=0;right=0;editable=1;overflow=hidden;whiteSpace=wrap;html=1;fontSize=16;spacingTop=2;" parent="Jva-s782ccOHxOLfVtiO-95" vertex="1">
          <mxGeometry width="30" height="30" as="geometry">
            <mxRectangle width="30" height="30" as="alternateBounds" />
          </mxGeometry>
        </mxCell>
        <mxCell id="Jva-s782ccOHxOLfVtiO-97" value="maintenance" style="shape=partialRectangle;connectable=0;fillColor=none;top=0;left=0;bottom=0;right=0;align=left;spacingLeft=6;overflow=hidden;whiteSpace=wrap;html=1;fontSize=16;spacingTop=2;" parent="Jva-s782ccOHxOLfVtiO-95" vertex="1">
          <mxGeometry x="30" width="150" height="30" as="geometry">
            <mxRectangle width="150" height="30" as="alternateBounds" />
          </mxGeometry>
        </mxCell>
        <mxCell id="Jva-s782ccOHxOLfVtiO-98" value="" style="shape=tableRow;horizontal=0;startSize=0;swimlaneHead=0;swimlaneBody=0;fillColor=none;collapsible=0;dropTarget=0;points=[[0,0.5],[1,0.5]];portConstraint=eastwest;top=0;left=0;right=0;bottom=0;fontSize=16;spacingTop=2;" parent="Jva-s782ccOHxOLfVtiO-17" vertex="1">
          <mxGeometry y="270" width="180" height="30" as="geometry" />
        </mxCell>
        <mxCell id="Jva-s782ccOHxOLfVtiO-99" value="" style="shape=partialRectangle;connectable=0;fillColor=none;top=0;left=0;bottom=0;right=0;editable=1;overflow=hidden;whiteSpace=wrap;html=1;fontSize=16;spacingTop=2;" parent="Jva-s782ccOHxOLfVtiO-98" vertex="1">
          <mxGeometry width="30" height="30" as="geometry">
            <mxRectangle width="30" height="30" as="alternateBounds" />
          </mxGeometry>
        </mxCell>
        <mxCell id="Jva-s782ccOHxOLfVtiO-100" value="cost" style="shape=partialRectangle;connectable=0;fillColor=none;top=0;left=0;bottom=0;right=0;align=left;spacingLeft=6;overflow=hidden;whiteSpace=wrap;html=1;fontSize=16;spacingTop=2;" parent="Jva-s782ccOHxOLfVtiO-98" vertex="1">
          <mxGeometry x="30" width="150" height="30" as="geometry">
            <mxRectangle width="150" height="30" as="alternateBounds" />
          </mxGeometry>
        </mxCell>
        <mxCell id="Jva-s782ccOHxOLfVtiO-101" value="" style="shape=tableRow;horizontal=0;startSize=0;swimlaneHead=0;swimlaneBody=0;fillColor=none;collapsible=0;dropTarget=0;points=[[0,0.5],[1,0.5]];portConstraint=eastwest;top=0;left=0;right=0;bottom=0;fontSize=16;spacingTop=2;" parent="Jva-s782ccOHxOLfVtiO-17" vertex="1">
          <mxGeometry y="300" width="180" height="30" as="geometry" />
        </mxCell>
        <mxCell id="Jva-s782ccOHxOLfVtiO-102" value="" style="shape=partialRectangle;connectable=0;fillColor=none;top=0;left=0;bottom=0;right=0;editable=1;overflow=hidden;whiteSpace=wrap;html=1;fontSize=16;spacingTop=2;" parent="Jva-s782ccOHxOLfVtiO-101" vertex="1">
          <mxGeometry width="30" height="30" as="geometry">
            <mxRectangle width="30" height="30" as="alternateBounds" />
          </mxGeometry>
        </mxCell>
        <mxCell id="Jva-s782ccOHxOLfVtiO-103" value="product_line" style="shape=partialRectangle;connectable=0;fillColor=none;top=0;left=0;bottom=0;right=0;align=left;spacingLeft=6;overflow=hidden;whiteSpace=wrap;html=1;fontSize=16;spacingTop=2;" parent="Jva-s782ccOHxOLfVtiO-101" vertex="1">
          <mxGeometry x="30" width="150" height="30" as="geometry">
            <mxRectangle width="150" height="30" as="alternateBounds" />
          </mxGeometry>
        </mxCell>
        <mxCell id="Jva-s782ccOHxOLfVtiO-104" value="" style="shape=tableRow;horizontal=0;startSize=0;swimlaneHead=0;swimlaneBody=0;fillColor=none;collapsible=0;dropTarget=0;points=[[0,0.5],[1,0.5]];portConstraint=eastwest;top=0;left=0;right=0;bottom=0;fontSize=16;spacingTop=2;" parent="Jva-s782ccOHxOLfVtiO-17" vertex="1">
          <mxGeometry y="330" width="180" height="30" as="geometry" />
        </mxCell>
        <mxCell id="Jva-s782ccOHxOLfVtiO-105" value="" style="shape=partialRectangle;connectable=0;fillColor=none;top=0;left=0;bottom=0;right=0;editable=1;overflow=hidden;whiteSpace=wrap;html=1;fontSize=16;spacingTop=2;" parent="Jva-s782ccOHxOLfVtiO-104" vertex="1">
          <mxGeometry width="30" height="30" as="geometry">
            <mxRectangle width="30" height="30" as="alternateBounds" />
          </mxGeometry>
        </mxCell>
        <mxCell id="Jva-s782ccOHxOLfVtiO-106" value="start_date" style="shape=partialRectangle;connectable=0;fillColor=none;top=0;left=0;bottom=0;right=0;align=left;spacingLeft=6;overflow=hidden;whiteSpace=wrap;html=1;fontSize=16;spacingTop=2;" parent="Jva-s782ccOHxOLfVtiO-104" vertex="1">
          <mxGeometry x="30" width="150" height="30" as="geometry">
            <mxRectangle width="150" height="30" as="alternateBounds" />
          </mxGeometry>
        </mxCell>
        <mxCell id="Jva-s782ccOHxOLfVtiO-107" value="gold.fact_sales" style="shape=table;startSize=30;container=1;collapsible=1;childLayout=tableLayout;fixedRows=1;rowLines=0;fontStyle=1;align=center;resizeLast=1;html=1;fillColor=#fff2cc;strokeColor=#d6b656;fontSize=16;spacingTop=2;" parent="1" vertex="1">
          <mxGeometry x="781" y="231" width="180" height="323" as="geometry" />
        </mxCell>
        <mxCell id="Jva-s782ccOHxOLfVtiO-111" value="" style="shape=tableRow;horizontal=0;startSize=0;swimlaneHead=0;swimlaneBody=0;fillColor=none;collapsible=0;dropTarget=0;points=[[0,0.5],[1,0.5]];portConstraint=eastwest;top=0;left=0;right=0;bottom=0;fontSize=16;spacingTop=2;" parent="Jva-s782ccOHxOLfVtiO-107" vertex="1">
          <mxGeometry y="30" width="180" height="30" as="geometry" />
        </mxCell>
        <mxCell id="Jva-s782ccOHxOLfVtiO-112" value="" style="shape=partialRectangle;connectable=0;fillColor=none;top=0;left=0;bottom=0;right=0;editable=1;overflow=hidden;whiteSpace=wrap;html=1;fontSize=16;spacingTop=2;" parent="Jva-s782ccOHxOLfVtiO-111" vertex="1">
          <mxGeometry width="33" height="30" as="geometry">
            <mxRectangle width="33" height="30" as="alternateBounds" />
          </mxGeometry>
        </mxCell>
        <mxCell id="Jva-s782ccOHxOLfVtiO-113" value="order_number" style="shape=partialRectangle;connectable=0;fillColor=none;top=0;left=0;bottom=0;right=0;align=left;spacingLeft=6;overflow=hidden;whiteSpace=wrap;html=1;fontSize=16;spacingTop=2;" parent="Jva-s782ccOHxOLfVtiO-111" vertex="1">
          <mxGeometry x="33" width="147" height="30" as="geometry">
            <mxRectangle width="147" height="30" as="alternateBounds" />
          </mxGeometry>
        </mxCell>
        <mxCell id="Jva-s782ccOHxOLfVtiO-114" value="" style="shape=tableRow;horizontal=0;startSize=0;swimlaneHead=0;swimlaneBody=0;fillColor=none;collapsible=0;dropTarget=0;points=[[0,0.5],[1,0.5]];portConstraint=eastwest;top=0;left=0;right=0;bottom=0;fontSize=16;spacingTop=2;" parent="Jva-s782ccOHxOLfVtiO-107" vertex="1">
          <mxGeometry y="60" width="180" height="30" as="geometry" />
        </mxCell>
        <mxCell id="Jva-s782ccOHxOLfVtiO-115" value="FK1" style="shape=partialRectangle;connectable=0;fillColor=none;top=0;left=0;bottom=0;right=0;editable=1;overflow=hidden;whiteSpace=wrap;html=1;fontSize=16;spacingTop=2;fontStyle=1" parent="Jva-s782ccOHxOLfVtiO-114" vertex="1">
          <mxGeometry width="33" height="30" as="geometry">
            <mxRectangle width="33" height="30" as="alternateBounds" />
          </mxGeometry>
        </mxCell>
        <mxCell id="Jva-s782ccOHxOLfVtiO-116" value="product_key" style="shape=partialRectangle;connectable=0;fillColor=none;top=0;left=0;bottom=0;right=0;align=left;spacingLeft=6;overflow=hidden;whiteSpace=wrap;html=1;fontSize=16;spacingTop=2;" parent="Jva-s782ccOHxOLfVtiO-114" vertex="1">
          <mxGeometry x="33" width="147" height="30" as="geometry">
            <mxRectangle width="147" height="30" as="alternateBounds" />
          </mxGeometry>
        </mxCell>
        <mxCell id="Jva-s782ccOHxOLfVtiO-117" value="" style="shape=tableRow;horizontal=0;startSize=0;swimlaneHead=0;swimlaneBody=0;fillColor=none;collapsible=0;dropTarget=0;points=[[0,0.5],[1,0.5]];portConstraint=eastwest;top=0;left=0;right=0;bottom=0;fontSize=16;spacingTop=2;" parent="Jva-s782ccOHxOLfVtiO-107" vertex="1">
          <mxGeometry y="90" width="180" height="30" as="geometry" />
        </mxCell>
        <mxCell id="Jva-s782ccOHxOLfVtiO-118" value="FK2" style="shape=partialRectangle;connectable=0;fillColor=none;top=0;left=0;bottom=0;right=0;editable=1;overflow=hidden;whiteSpace=wrap;html=1;fontSize=16;spacingTop=2;fontStyle=1" parent="Jva-s782ccOHxOLfVtiO-117" vertex="1">
          <mxGeometry width="33" height="30" as="geometry">
            <mxRectangle width="33" height="30" as="alternateBounds" />
          </mxGeometry>
        </mxCell>
        <mxCell id="Jva-s782ccOHxOLfVtiO-119" value="customer_key" style="shape=partialRectangle;connectable=0;fillColor=none;top=0;left=0;bottom=0;right=0;align=left;spacingLeft=6;overflow=hidden;whiteSpace=wrap;html=1;fontSize=16;spacingTop=2;" parent="Jva-s782ccOHxOLfVtiO-117" vertex="1">
          <mxGeometry x="33" width="147" height="30" as="geometry">
            <mxRectangle width="147" height="30" as="alternateBounds" />
          </mxGeometry>
        </mxCell>
        <mxCell id="Jva-s782ccOHxOLfVtiO-120" value="" style="shape=tableRow;horizontal=0;startSize=0;swimlaneHead=0;swimlaneBody=0;fillColor=none;collapsible=0;dropTarget=0;points=[[0,0.5],[1,0.5]];portConstraint=eastwest;top=0;left=0;right=0;bottom=0;fontSize=16;spacingTop=2;" parent="Jva-s782ccOHxOLfVtiO-107" vertex="1">
          <mxGeometry y="120" width="180" height="23" as="geometry" />
        </mxCell>
        <mxCell id="Jva-s782ccOHxOLfVtiO-121" value="" style="shape=partialRectangle;connectable=0;fillColor=none;top=0;left=0;bottom=0;right=0;editable=1;overflow=hidden;whiteSpace=wrap;html=1;fontSize=16;spacingTop=2;" parent="Jva-s782ccOHxOLfVtiO-120" vertex="1">
          <mxGeometry width="33" height="23" as="geometry">
            <mxRectangle width="33" height="23" as="alternateBounds" />
          </mxGeometry>
        </mxCell>
        <mxCell id="Jva-s782ccOHxOLfVtiO-122" value="order_date" style="shape=partialRectangle;connectable=0;fillColor=none;top=0;left=0;bottom=0;right=0;align=left;spacingLeft=6;overflow=hidden;whiteSpace=wrap;html=1;fontSize=16;spacingTop=2;" parent="Jva-s782ccOHxOLfVtiO-120" vertex="1">
          <mxGeometry x="33" width="147" height="23" as="geometry">
            <mxRectangle width="147" height="23" as="alternateBounds" />
          </mxGeometry>
        </mxCell>
        <mxCell id="Jva-s782ccOHxOLfVtiO-123" value="" style="shape=tableRow;horizontal=0;startSize=0;swimlaneHead=0;swimlaneBody=0;fillColor=none;collapsible=0;dropTarget=0;points=[[0,0.5],[1,0.5]];portConstraint=eastwest;top=0;left=0;right=0;bottom=0;fontSize=16;spacingTop=2;" parent="Jva-s782ccOHxOLfVtiO-107" vertex="1">
          <mxGeometry y="143" width="180" height="30" as="geometry" />
        </mxCell>
        <mxCell id="Jva-s782ccOHxOLfVtiO-124" value="" style="shape=partialRectangle;connectable=0;fillColor=none;top=0;left=0;bottom=0;right=0;editable=1;overflow=hidden;whiteSpace=wrap;html=1;fontSize=16;spacingTop=2;" parent="Jva-s782ccOHxOLfVtiO-123" vertex="1">
          <mxGeometry width="33" height="30" as="geometry">
            <mxRectangle width="33" height="30" as="alternateBounds" />
          </mxGeometry>
        </mxCell>
        <mxCell id="Jva-s782ccOHxOLfVtiO-125" value="shipping_date" style="shape=partialRectangle;connectable=0;fillColor=none;top=0;left=0;bottom=0;right=0;align=left;spacingLeft=6;overflow=hidden;whiteSpace=wrap;html=1;fontSize=16;spacingTop=2;" parent="Jva-s782ccOHxOLfVtiO-123" vertex="1">
          <mxGeometry x="33" width="147" height="30" as="geometry">
            <mxRectangle width="147" height="30" as="alternateBounds" />
          </mxGeometry>
        </mxCell>
        <mxCell id="Jva-s782ccOHxOLfVtiO-126" value="" style="shape=tableRow;horizontal=0;startSize=0;swimlaneHead=0;swimlaneBody=0;fillColor=none;collapsible=0;dropTarget=0;points=[[0,0.5],[1,0.5]];portConstraint=eastwest;top=0;left=0;right=0;bottom=0;fontSize=16;spacingTop=2;" parent="Jva-s782ccOHxOLfVtiO-107" vertex="1">
          <mxGeometry y="173" width="180" height="30" as="geometry" />
        </mxCell>
        <mxCell id="Jva-s782ccOHxOLfVtiO-127" value="" style="shape=partialRectangle;connectable=0;fillColor=none;top=0;left=0;bottom=0;right=0;editable=1;overflow=hidden;whiteSpace=wrap;html=1;fontSize=16;spacingTop=2;" parent="Jva-s782ccOHxOLfVtiO-126" vertex="1">
          <mxGeometry width="33" height="30" as="geometry">
            <mxRectangle width="33" height="30" as="alternateBounds" />
          </mxGeometry>
        </mxCell>
        <mxCell id="Jva-s782ccOHxOLfVtiO-128" value="due_date" style="shape=partialRectangle;connectable=0;fillColor=none;top=0;left=0;bottom=0;right=0;align=left;spacingLeft=6;overflow=hidden;whiteSpace=wrap;html=1;fontSize=16;spacingTop=2;" parent="Jva-s782ccOHxOLfVtiO-126" vertex="1">
          <mxGeometry x="33" width="147" height="30" as="geometry">
            <mxRectangle width="147" height="30" as="alternateBounds" />
          </mxGeometry>
        </mxCell>
        <mxCell id="Jva-s782ccOHxOLfVtiO-129" value="" style="shape=tableRow;horizontal=0;startSize=0;swimlaneHead=0;swimlaneBody=0;fillColor=none;collapsible=0;dropTarget=0;points=[[0,0.5],[1,0.5]];portConstraint=eastwest;top=0;left=0;right=0;bottom=0;fontSize=16;spacingTop=2;" parent="Jva-s782ccOHxOLfVtiO-107" vertex="1">
          <mxGeometry y="203" width="180" height="30" as="geometry" />
        </mxCell>
        <mxCell id="Jva-s782ccOHxOLfVtiO-130" value="" style="shape=partialRectangle;connectable=0;fillColor=none;top=0;left=0;bottom=0;right=0;editable=1;overflow=hidden;whiteSpace=wrap;html=1;fontSize=16;spacingTop=2;" parent="Jva-s782ccOHxOLfVtiO-129" vertex="1">
          <mxGeometry width="33" height="30" as="geometry">
            <mxRectangle width="33" height="30" as="alternateBounds" />
          </mxGeometry>
        </mxCell>
        <mxCell id="Jva-s782ccOHxOLfVtiO-131" value="sales_amount" style="shape=partialRectangle;connectable=0;fillColor=none;top=0;left=0;bottom=0;right=0;align=left;spacingLeft=6;overflow=hidden;whiteSpace=wrap;html=1;fontSize=16;spacingTop=2;" parent="Jva-s782ccOHxOLfVtiO-129" vertex="1">
          <mxGeometry x="33" width="147" height="30" as="geometry">
            <mxRectangle width="147" height="30" as="alternateBounds" />
          </mxGeometry>
        </mxCell>
        <mxCell id="Jva-s782ccOHxOLfVtiO-132" value="" style="shape=tableRow;horizontal=0;startSize=0;swimlaneHead=0;swimlaneBody=0;fillColor=none;collapsible=0;dropTarget=0;points=[[0,0.5],[1,0.5]];portConstraint=eastwest;top=0;left=0;right=0;bottom=0;fontSize=16;spacingTop=2;" parent="Jva-s782ccOHxOLfVtiO-107" vertex="1">
          <mxGeometry y="233" width="180" height="30" as="geometry" />
        </mxCell>
        <mxCell id="Jva-s782ccOHxOLfVtiO-133" value="" style="shape=partialRectangle;connectable=0;fillColor=none;top=0;left=0;bottom=0;right=0;editable=1;overflow=hidden;whiteSpace=wrap;html=1;fontSize=16;spacingTop=2;" parent="Jva-s782ccOHxOLfVtiO-132" vertex="1">
          <mxGeometry width="33" height="30" as="geometry">
            <mxRectangle width="33" height="30" as="alternateBounds" />
          </mxGeometry>
        </mxCell>
        <mxCell id="Jva-s782ccOHxOLfVtiO-134" value="quantity" style="shape=partialRectangle;connectable=0;fillColor=none;top=0;left=0;bottom=0;right=0;align=left;spacingLeft=6;overflow=hidden;whiteSpace=wrap;html=1;fontSize=16;spacingTop=2;" parent="Jva-s782ccOHxOLfVtiO-132" vertex="1">
          <mxGeometry x="33" width="147" height="30" as="geometry">
            <mxRectangle width="147" height="30" as="alternateBounds" />
          </mxGeometry>
        </mxCell>
        <mxCell id="Jva-s782ccOHxOLfVtiO-135" value="" style="shape=tableRow;horizontal=0;startSize=0;swimlaneHead=0;swimlaneBody=0;fillColor=none;collapsible=0;dropTarget=0;points=[[0,0.5],[1,0.5]];portConstraint=eastwest;top=0;left=0;right=0;bottom=0;fontSize=16;spacingTop=2;" parent="Jva-s782ccOHxOLfVtiO-107" vertex="1">
          <mxGeometry y="263" width="180" height="30" as="geometry" />
        </mxCell>
        <mxCell id="Jva-s782ccOHxOLfVtiO-136" value="" style="shape=partialRectangle;connectable=0;fillColor=none;top=0;left=0;bottom=0;right=0;editable=1;overflow=hidden;whiteSpace=wrap;html=1;fontSize=16;spacingTop=2;" parent="Jva-s782ccOHxOLfVtiO-135" vertex="1">
          <mxGeometry width="33" height="30" as="geometry">
            <mxRectangle width="33" height="30" as="alternateBounds" />
          </mxGeometry>
        </mxCell>
        <mxCell id="Jva-s782ccOHxOLfVtiO-137" value="price" style="shape=partialRectangle;connectable=0;fillColor=none;top=0;left=0;bottom=0;right=0;align=left;spacingLeft=6;overflow=hidden;whiteSpace=wrap;html=1;fontSize=16;spacingTop=2;" parent="Jva-s782ccOHxOLfVtiO-135" vertex="1">
          <mxGeometry x="33" width="147" height="30" as="geometry">
            <mxRectangle width="147" height="30" as="alternateBounds" />
          </mxGeometry>
        </mxCell>
        <mxCell id="Jva-s782ccOHxOLfVtiO-138" value="" style="shape=tableRow;horizontal=0;startSize=0;swimlaneHead=0;swimlaneBody=0;fillColor=none;collapsible=0;dropTarget=0;points=[[0,0.5],[1,0.5]];portConstraint=eastwest;top=0;left=0;right=0;bottom=0;fontSize=16;spacingTop=2;" parent="Jva-s782ccOHxOLfVtiO-107" vertex="1">
          <mxGeometry y="293" width="180" height="30" as="geometry" />
        </mxCell>
        <mxCell id="Jva-s782ccOHxOLfVtiO-139" value="" style="shape=partialRectangle;connectable=0;fillColor=none;top=0;left=0;bottom=0;right=0;editable=1;overflow=hidden;whiteSpace=wrap;html=1;fontSize=16;spacingTop=2;" parent="Jva-s782ccOHxOLfVtiO-138" vertex="1">
          <mxGeometry width="33" height="30" as="geometry">
            <mxRectangle width="33" height="30" as="alternateBounds" />
          </mxGeometry>
        </mxCell>
        <mxCell id="Jva-s782ccOHxOLfVtiO-140" value="" style="shape=partialRectangle;connectable=0;fillColor=none;top=0;left=0;bottom=0;right=0;align=left;spacingLeft=6;overflow=hidden;whiteSpace=wrap;html=1;fontSize=16;spacingTop=2;" parent="Jva-s782ccOHxOLfVtiO-138" vertex="1">
          <mxGeometry x="33" width="147" height="30" as="geometry">
            <mxRectangle width="147" height="30" as="alternateBounds" />
          </mxGeometry>
        </mxCell>
        <mxCell id="p88icaoVKmYCR3hM2-rE-1" value="" style="edgeStyle=entityRelationEdgeStyle;fontSize=12;html=1;endArrow=ERzeroToMany;startArrow=ERmandOne;rounded=0;entryX=1;entryY=0.5;entryDx=0;entryDy=0;exitX=0;exitY=0.5;exitDx=0;exitDy=0;" edge="1" parent="1" source="Jva-s782ccOHxOLfVtiO-2" target="Jva-s782ccOHxOLfVtiO-117">
          <mxGeometry width="100" height="100" relative="1" as="geometry">
            <mxPoint x="1067" y="429" as="sourcePoint" />
            <mxPoint x="1012" y="319" as="targetPoint" />
          </mxGeometry>
        </mxCell>
        <mxCell id="p88icaoVKmYCR3hM2-rE-3" value="" style="edgeStyle=entityRelationEdgeStyle;fontSize=12;html=1;endArrow=ERzeroToMany;startArrow=ERmandOne;rounded=0;exitX=1;exitY=0.5;exitDx=0;exitDy=0;" edge="1" parent="1" source="Jva-s782ccOHxOLfVtiO-18">
          <mxGeometry width="100" height="100" relative="1" as="geometry">
            <mxPoint x="681" y="408" as="sourcePoint" />
            <mxPoint x="781" y="308" as="targetPoint" />
          </mxGeometry>
        </mxCell>
        <mxCell id="p88icaoVKmYCR3hM2-rE-5" value="&lt;b&gt;Data Warehouse&lt;/b&gt;" style="text;strokeColor=#b85450;align=center;fillColor=#f8cecc;html=1;verticalAlign=middle;whiteSpace=wrap;rounded=0;fontSize=16;" vertex="1" parent="1">
          <mxGeometry x="660" y="-110" width="370" height="110" as="geometry" />
        </mxCell>
      </root>
    </mxGraphModel>
  </diagram>
</mxfile>
